<?xml version="1.0" encoding="UTF-8" standalone="no"?><!-- Generator: Gravit.io --><svg xmlns="http://www.w3.org/2000/svg" xmlns:xlink="http://www.w3.org/1999/xlink" style="isolation:isolate" viewBox="0 0 346.667 346.667" width="346.667pt" height="346.667pt"><defs><clipPath id="_clipPath_YredVKLo8RIBHV3E4i6UGokaLFvlMrIO"><rect width="346.667" height="346.667"/></clipPath></defs><g clip-path="url(#_clipPath_YredVKLo8RIBHV3E4i6UGokaLFvlMrIO)"><path d=" M 0 21.333 L 0 42.667 L 266 42.667 L 225.334 83.333 L 184.667 124 L 203.734 142.933 L 222.667 162 L 263.334 121.333 L 304 80.667 L 304 237.334 L 346.667 237.334 L 346.667 0 L 0 0 L 0 21.333 Z " fill="rgb(255,99,0)"/><path d=" M 0 227.334 L 0 346.667 L 346.667 346.667 L 346.667 302.667 L 82 302.667 L 122.667 262 L 163.333 221.334 L 144.267 202.4 L 125.333 183.334 L 84.667 224 L 44 264.667 L 44 108 L 0 108 L 0 227.334 Z " fill="rgb(74,198,255)"/></g></svg>